HIERARCHY
ROOT joint_Root
{
	OFFSET 0.0 0.0 0.0
	CHANNELS 6 Xposition Yposition Zposition Zrotation Xrotation Yrotation 
	JOINT Hips
	{
		OFFSET 4.5925 91.4895 -427.239
		CHANNELS 6 Xposition Yposition Zposition Zrotation Xrotation Yrotation 
		JOINT Spine
		{
			OFFSET 15.7357 0.0 0.0
			CHANNELS 6 Xposition Yposition Zposition Zrotation Xrotation Yrotation 
			JOINT Chest
			{
				OFFSET 8.98455 -0.406207 0.0
				CHANNELS 6 Xposition Yposition Zposition Zrotation Xrotation Yrotation 
				JOINT Neck
				{
					OFFSET 16.3773 0.0 0.0
					CHANNELS 6 Xposition Yposition Zposition Zrotation Xrotation Yrotation 
					JOINT Head
					{
						OFFSET 6.45672 0.0 0.0
						CHANNELS 6 Xposition Yposition Zposition Zrotation Xrotation Yrotation 
						End Site
						{
							OFFSET 0.0 0.0 0.0
						}
					}
				}
				JOINT Shoulder_L
				{
					OFFSET 12.9942 -0.242716 4.98039
					CHANNELS 6 Xposition Yposition Zposition Zrotation Xrotation Yrotation 
					JOINT UpperArm_L
					{
						OFFSET 5.34809 0.0 0.0
						CHANNELS 6 Xposition Yposition Zposition Zrotation Xrotation Yrotation 
						JOINT LowerArm_L
						{
							OFFSET 24.3286 1.87007e-05 0.0
							CHANNELS 6 Xposition Yposition Zposition Zrotation Xrotation Yrotation 
							JOINT Hand_L
							{
								OFFSET 22.2916 0.0 0.0
								CHANNELS 6 Xposition Yposition Zposition Zrotation Xrotation Yrotation 
								End Site
								{
									OFFSET 0.0 0.0 0.0
								}
							}
						}
					}
				}
				JOINT Shoulder_R
				{
					OFFSET 12.9945 -0.242716 -4.98039
					CHANNELS 6 Xposition Yposition Zposition Zrotation Xrotation Yrotation 
					JOINT UpperArm_R
					{
						OFFSET -5.34813 0.0 0.0
						CHANNELS 6 Xposition Yposition Zposition Zrotation Xrotation Yrotation 
						JOINT LowerArm_R
						{
							OFFSET -24.3289 0.000322201 0.0
							CHANNELS 6 Xposition Yposition Zposition Zrotation Xrotation Yrotation 
							JOINT Hand_R
							{
								OFFSET -22.2915 -0.000108084 0.0
								CHANNELS 6 Xposition Yposition Zposition Zrotation Xrotation Yrotation 
								End Site
								{
									OFFSET 0.0 0.0 0.0
								}
							}
						}
					}
				}
			}
		}
		JOINT UpperLeg_L
		{
			OFFSET -2.19248 -6.46944 0.0
			CHANNELS 6 Xposition Yposition Zposition Zrotation Xrotation Yrotation 
			JOINT LowerLeg_L
			{
				OFFSET 39.0811 0.0 -1.23785e-05
				CHANNELS 6 Xposition Yposition Zposition Zrotation Xrotation Yrotation 
				JOINT Foot_L
				{
					OFFSET 40.9854 0.0 -1.26872e-05
					CHANNELS 6 Xposition Yposition Zposition Zrotation Xrotation Yrotation 
					JOINT Toes_L
					{
						OFFSET 11.7543 0.0 0.0
						CHANNELS 6 Xposition Yposition Zposition Zrotation Xrotation Yrotation 
						End Site
						{
							OFFSET 0.0 0.0 0.0
						}
					}
				}
			}
		}
		JOINT UpperLeg_R
		{
			OFFSET -2.19251 6.46944 0.0
			CHANNELS 6 Xposition Yposition Zposition Zrotation Xrotation Yrotation 
			JOINT LowerLeg_R
			{
				OFFSET -39.0811 -0.00228153 -0.0401928
				CHANNELS 6 Xposition Yposition Zposition Zrotation Xrotation Yrotation 
				JOINT Foot_R
				{
					OFFSET -40.9854 0.0 0.0
					CHANNELS 6 Xposition Yposition Zposition Zrotation Xrotation Yrotation 
					JOINT Toes_R
					{
						OFFSET -11.7543 0.0 0.0
						CHANNELS 6 Xposition Yposition Zposition Zrotation Xrotation Yrotation 
						End Site
						{
							OFFSET 0.0 0.0 0.0
						}
					}
				}
			}
		}
	}
}
MOTION
Frames:	4
Frame Time:	0.0333333
0.000000 0.000000 0.000000 0.000000 0.000000 -0.000000 -1.747040 90.163000 0.490996 89.526400 -3.476850 10.397100 15.735700 0.000005 -0.000001 87.807600 78.636900 -87.639200 8.984550 -0.406207 -0.000000 14.946000 -0.847547 0.448404 16.377300 -0.000001 -0.000001 6.660130 -4.054830 1.950360 6.456720 -0.000001 -0.000000 -3.931310 -3.505540 1.628360 12.994200 -0.242716 4.980390 -91.256000 6.025190 -78.201900 5.348090 -0.000007 -0.000001 -58.389400 36.585400 -27.011100 24.328600 0.000019 0.000005 8.967970 20.051600 -24.715000 22.291600 -0.000001 0.000005 9.048470 5.250420 1.421840 12.994500 -0.242716 -4.980390 88.998000 10.747800 -84.641800 -5.348130 -0.000001 -0.000004 -57.877500 36.587900 -21.650900 -24.328900 0.000322 -0.000009 1.707630 4.584440 -20.466700 -22.291500 -0.000108 -0.000004 16.340900 5.426670 -3.825070 -2.192480 -6.469440 -0.000000 -173.941000 -13.099400 -0.788999 39.081100 -0.000007 -0.000012 -0.247113 0.369639 33.764100 40.985400 -0.000006 -0.000013 -0.971926 2.947390 -72.020900 11.754300 -0.000000 0.000003 -0.000252 -0.002249 -16.661800 -2.192510 6.469440 -0.000001 174.416000 19.395100 -179.873000 -39.081100 -0.002282 -0.040193 -0.234378 0.360710 33.381300 -40.985400 0.000008 0.000006 4.243460 11.638400 -72.911900 -11.754300 -0.000006 -0.000006 -0.002179 -0.030939 -17.831200
0.000000 0.000000 0.000000 0.000000 0.000000 -0.000000 -1.765380 90.172300 0.451521 89.532200 -3.478430 10.381800 15.735700 0.000005 -0.000001 87.832700 78.635300 -87.661500 8.984550 -0.406207 -0.000000 14.949500 -0.837676 0.452607 16.377300 -0.000001 -0.000001 6.721620 -4.003850 1.954850 6.456720 -0.000001 -0.000000 -4.119910 -3.434840 1.550500 12.994200 -0.242716 4.980390 -91.259100 6.006390 -78.137400 5.348090 -0.000007 -0.000001 -58.905900 35.730000 -26.522600 24.328600 0.000019 0.000005 9.196770 19.628700 -25.732900 22.291600 -0.000001 0.000005 9.430680 5.254440 1.315150 12.994500 -0.242716 -4.980390 88.998800 10.701900 -84.623500 -5.348130 -0.000001 -0.000004 -57.872800 36.569800 -21.697400 -24.328900 0.000322 -0.000009 1.699280 4.574970 -20.413600 -22.291500 -0.000108 -0.000004 16.338400 5.427040 -3.837810 -2.192480 -6.469440 -0.000000 -173.939000 -13.110700 -0.818599 39.081100 -0.000007 -0.000012 -0.243857 0.365218 33.731500 40.985400 -0.000006 -0.000013 -0.972712 2.983820 -71.972200 11.754300 -0.000000 0.000003 -0.000241 -0.002162 -16.658700 -2.192510 6.469440 -0.000001 174.420000 19.401700 -179.887000 -39.081100 -0.002282 -0.040193 -0.239008 0.368520 33.325300 -40.985400 0.000008 0.000006 4.071620 11.686800 -72.821200 -11.754300 -0.000006 -0.000006 -0.002090 -0.029839 -17.786500
0.000000 0.000000 0.000000 0.000000 0.000000 -0.000000 -1.784510 90.182700 0.409069 89.539900 -3.430710 10.392200 15.735700 0.000005 -0.000001 87.869000 78.620100 -87.691000 8.984550 -0.406207 -0.000000 14.980500 -0.824073 0.464590 16.377300 -0.000001 -0.000001 6.801050 -3.938580 1.947130 6.456720 -0.000001 -0.000000 -4.382390 -3.343150 1.463440 12.994200 -0.242716 4.980390 -91.271400 6.024140 -78.059400 5.348090 -0.000007 -0.000001 -59.279700 34.766500 -26.154000 24.328600 0.000019 0.000005 9.596970 19.315900 -27.074700 22.291600 -0.000001 0.000005 9.627870 5.256180 1.269000 12.994500 -0.242716 -4.980390 88.997600 10.650000 -84.591400 -5.348130 -0.000001 -0.000004 -57.881900 36.497400 -21.687600 -24.328900 0.000322 -0.000009 1.699010 4.560670 -20.469100 -22.291500 -0.000108 -0.000004 16.194900 5.424260 -3.743060 -2.192480 -6.469440 -0.000000 -173.940000 -13.109900 -0.833177 39.081100 -0.000007 -0.000012 -0.241766 0.362541 33.698400 40.985400 -0.000006 -0.000013 -0.975942 2.997720 -71.913900 11.754300 -0.000000 0.000003 -0.000256 -0.002281 -16.663000 -2.192510 6.469440 -0.000001 174.408000 19.444800 -179.883000 -39.081100 -0.002282 -0.040193 -0.246939 0.381201 33.282700 -40.985400 0.000008 0.000006 4.000760 11.738200 -72.753300 -11.754300 -0.000006 -0.000006 -0.002004 -0.028761 -17.742600
0.000000 0.000000 0.000000 0.000000 0.000000 -0.000000 -1.817270 90.186900 0.367596 89.530900 -3.377300 10.401000 15.735700 0.000005 -0.000001 87.957700 78.608800 -87.768100 8.984550 -0.406207 -0.000000 15.004300 -0.789324 0.483391 16.377300 -0.000001 -0.000001 6.836040 -3.866340 1.918200 6.456720 -0.000001 -0.000000 -4.569550 -3.238090 1.388760 12.994200 -0.242716 4.980390 -91.278200 5.999250 -77.949400 5.348090 -0.000007 -0.000001 -59.487000 33.833100 -26.050100 24.328600 0.000019 0.000005 9.966730 18.914200 -28.462800 22.291600 -0.000001 0.000005 10.001000 5.258230 1.214600 12.994500 -0.242716 -4.980390 88.993300 10.639500 -84.563300 -5.348130 -0.000001 -0.000004 -57.842300 36.523900 -21.668700 -24.328900 0.000322 -0.000009 1.696450 4.558120 -20.451200 -22.291500 -0.000108 -0.000004 16.298800 5.425650 -3.790380 -2.192480 -6.469440 -0.000000 -173.902000 -13.102500 -0.853442 39.081100 -0.000007 -0.000012 -0.243235 0.364799 33.694400 40.985400 -0.000006 -0.000013 -0.980681 3.061800 -71.876600 11.754300 -0.000000 0.000003 -0.000254 -0.002261 -16.662300 -2.192510 6.469440 -0.000001 174.444000 19.487500 -179.882000 -39.081100 -0.002282 -0.040193 -0.243595 0.376277 33.270800 -40.985400 0.000008 0.000006 4.035570 11.712300 -72.741200 -11.754300 -0.000006 -0.000006 -0.002226 -0.031511 -17.854400
